# xmcd
#
# Track frame offsets: 
#        150
#        10185
#        27147
#        38045
#        54393
#        68006
#        82788
#        94911
#        104551
#
# Disc length: 1896 seconds
#
# Revision: 0
# Processed by: cddbd v1.5.2PL0 Copyright (c) Steve Scherf et al.
# Submitted via: ExactAudioCopy v0.99pb5
#
DISCID=62076609
DTITLE=Screamin' Jay Hawkins - I Put A Spell On You
DYEAR=1977
DGENRE=Blues
TTITLE0=I Put A Spell On You
TTITLE1=I've Got You Under My Skin
TTITLE2=Time After Time
TTITLE3=Ebb Time
TTITLE4=Move Me
TTITLE5=Africa Gone Funky
TTITLE6=Ashes
TTITLE7=I Need You
TTITLE8=Sweet Ginny
EXTD=
EXTT0=
EXTT1=
EXTT2=
EXTT3=
EXTT4=
EXTT5=
EXTT6=
EXTT7=
EXTT8=
PLAYORDER=
